<?xml version="1.0" standalone="no"?>
<!DOCTYPE svg PUBLIC "-//W3C//DTD SVG 20010904//EN"
 "http://www.w3.org/TR/2001/REC-SVG-20010904/DTD/svg10.dtd">
<svg version="1.0" xmlns="http://www.w3.org/2000/svg"
 width="720.000000pt" height="720.000000pt" viewBox="0 0 720.000000 720.000000"
 preserveAspectRatio="xMidYMid meet">
<metadata>
Created by potrace 1.11, written by Peter Selinger 2001-2013
</metadata>
<g transform="translate(0.000000,720.000000) scale(0.100000,-0.100000)"
fill="#000000" stroke="none">
<path d="M2060 7059 c0 -5 5 -7 10 -4 6 3 10 8 10 11 0 2 -4 4 -10 4 -5 0 -10
-5 -10 -11z"/>
<path d="M3210 7059 c0 -5 5 -7 10 -4 6 3 10 8 10 11 0 2 -4 4 -10 4 -5 0 -10
-5 -10 -11z"/>
<path d="M3838 7057 c-24 -9 -39 -27 -23 -27 10 0 65 30 65 35 0 7 -10 5 -42
-8z"/>
<path d="M1040 7000 c11 -7 11 -10 2 -10 -7 0 -10 -5 -6 -11 4 -7 10 -7 16 -1
12 12 2 32 -15 32 -7 0 -6 -4 3 -10z"/>
<path d="M6690 6995 c0 -10 7 -15 18 -13 21 4 19 22 -2 26 -10 2 -16 -3 -16
-13z"/>
<path d="M1420 6900 c0 -5 7 -10 16 -10 8 0 12 5 9 10 -3 6 -10 10 -16 10 -5
0 -9 -4 -9 -10z"/>
<path d="M5266 6824 c-5 -14 -4 -15 9 -4 17 14 19 20 6 20 -5 0 -12 -7 -15
-16z"/>
<path d="M2590 6805 c0 -8 5 -15 10 -15 6 0 10 7 10 15 0 8 -4 15 -10 15 -5 0
-10 -7 -10 -15z"/>
<path d="M3690 6790 c0 -5 5 -10 10 -10 6 0 10 5 10 10 0 6 -4 10 -10 10 -5 0
-10 -4 -10 -10z"/>
<path d="M2885 6721 c-7 -12 12 -24 25 -16 11 7 4 25 -10 25 -5 0 -11 -4 -15
-9z"/>
<path d="M4280 6625 c0 -8 2 -15 4 -15 2 0 6 7 10 15 3 8 1 15 -4 15 -6 0 -10
-7 -10 -15z"/>
<path d="M1385 6580 c-3 -5 -2 -10 4 -10 5 0 13 5 16 10 3 6 2 10 -4 10 -5 0
-13 -4 -16 -10z"/>
<path d="M309 6554 c-16 -20 0 -49 27 -49 22 0 31 30 14 50 -16 19 -24 19 -41
-1z m32 -37 c-17 -17 -34 12 -19 31 10 11 13 10 21 -3 6 -11 5 -21 -2 -28z"/>
<path d="M186 6481 c-4 -5 3 -7 14 -4 26 7 50 -13 50 -43 0 -28 -34 -41 -57
-22 -14 11 -15 11 -11 -2 6 -19 45 -25 64 -10 19 16 18 55 -2 74 -17 18 -50
21 -58 7z"/>
<path d="M3038 6452 c9 -10 19 -17 21 -16 6 5 -20 34 -30 34 -5 0 -1 -8 9 -18z"/>
<path d="M175 6449 c-4 -6 -5 -12 -2 -15 2 -3 7 2 10 11 7 17 1 20 -8 4z"/>
<path d="M5741 6436 c-15 -18 -3 -46 20 -46 25 0 41 30 24 47 -17 17 -30 17
-44 -1z m37 -17 c-2 -6 -8 -10 -13 -10 -5 0 -11 4 -13 10 -2 6 4 11 13 11 9 0
15 -5 13 -11z"/>
<path d="M6445 6440 c-3 -5 -1 -10 4 -10 6 0 11 5 11 10 0 6 -2 10 -4 10 -3 0
-8 -4 -11 -10z"/>
<path d="M3005 6408 c8 -21 14 -22 35 -7 13 9 13 10 -1 6 -9 -3 -22 0 -28 6
-9 9 -11 8 -6 -5z"/>
<path d="M3370 6400 c0 -5 7 -7 15 -4 8 4 15 8 15 10 0 2 -7 4 -15 4 -8 0 -15
-4 -15 -10z"/>
<path d="M2972 6368 c5 -15 28 -18 29 -3 0 6 -7 12 -17 13 -10 3 -15 -1 -12
-10z"/>
<path d="M1165 6350 c-3 -5 -1 -10 4 -10 6 0 11 5 11 10 0 6 -2 10 -4 10 -3 0
-8 -4 -11 -10z"/>
<path d="M5297 6334 c-11 -11 3 -24 18 -18 8 4 12 10 9 15 -6 11 -18 12 -27 3z"/>
<path d="M5750 6299 c0 -5 5 -7 10 -4 6 3 10 8 10 11 0 2 -4 4 -10 4 -5 0 -10
-5 -10 -11z"/>
<path d="M1215 6280 c-12 -19 24 -43 42 -29 7 6 10 16 6 22 -4 6 -9 3 -14 -9
-6 -18 -8 -17 -16 5 -7 18 -12 21 -18 11z"/>
<path d="M575 6261 c-6 -11 9 -23 19 -14 9 9 7 23 -3 23 -6 0 -12 -4 -16 -9z"/>
<path d="M1005 6261 c-7 -12 12 -24 25 -16 11 7 4 25 -10 25 -5 0 -11 -4 -15
-9z"/>
<path d="M5915 6260 c-3 -5 -1 -10 4 -10 6 0 11 5 11 10 0 6 -2 10 -4 10 -3 0
-8 -4 -11 -10z"/>
<path d="M5290 6239 c0 -5 5 -7 10 -4 6 3 10 8 10 11 0 2 -4 4 -10 4 -5 0 -10
-5 -10 -11z"/>
<path d="M5325 6241 c-3 -5 -1 -12 5 -16 5 -3 10 1 10 9 0 18 -6 21 -15 7z"/>
<path d="M5573 6193 c-18 -6 -16 -33 1 -33 19 0 31 19 20 30 -5 4 -15 5 -21 3z"/>
<path d="M6190 6170 c0 -5 5 -10 11 -10 5 0 7 5 4 10 -3 6 -8 10 -11 10 -2 0
-4 -4 -4 -10z"/>
<path d="M5094 6059 c-10 -17 13 -36 27 -22 12 12 4 33 -11 33 -5 0 -12 -5
-16 -11z"/>
<path d="M446 6034 c-8 -22 -8 -24 8 -24 15 0 28 24 19 34 -11 10 -21 7 -27
-10z"/>
<path d="M5005 6040 c-3 -5 -3 -15 1 -21 6 -11 23 6 24 24 0 10 -18 9 -25 -3z"/>
<path d="M5635 6040 c-3 -5 -1 -10 4 -10 6 0 11 5 11 10 0 6 -2 10 -4 10 -3 0
-8 -4 -11 -10z"/>
<path d="M506 5835 c-3 -8 -1 -15 4 -15 6 0 10 7 10 15 0 8 -2 15 -4 15 -2 0
-6 -7 -10 -15z"/>
<path d="M2287 5809 c7 -7 15 -10 18 -7 3 3 -2 9 -12 12 -14 6 -15 5 -6 -5z"/>
<path d="M6395 5810 c-3 -5 1 -10 10 -10 9 0 13 5 10 10 -3 6 -8 10 -10 10 -2
0 -7 -4 -10 -10z"/>
<path d="M2824 5792 c-12 -19 3 -42 29 -42 13 0 26 27 27 53 0 15 -46 6 -56
-11z m46 -1 c0 -5 -6 -14 -14 -20 -16 -13 -32 2 -21 19 8 12 35 13 35 1z"/>
<path d="M4660 5786 c-5 -5 -10 -15 -10 -20 0 -6 5 -3 11 6 5 10 16 15 24 12
8 -4 15 -2 15 3 0 13 -27 12 -40 -1z"/>
<path d="M4710 5783 c0 -4 5 -15 10 -23 8 -13 10 -13 10 2 0 9 -4 20 -10 23
-5 3 -10 3 -10 -2z"/>
<path d="M4645 5740 c-3 -5 -1 -10 4 -10 6 0 11 5 11 10 0 6 -2 10 -4 10 -3 0
-8 -4 -11 -10z"/>
<path d="M4678 5723 c7 -3 16 -2 19 1 4 3 -2 6 -13 5 -11 0 -14 -3 -6 -6z"/>
<path d="M7043 5693 c-13 -2 -23 -8 -23 -12 0 -5 11 -6 25 -3 14 2 25 8 25 13
0 5 -1 8 -2 8 -2 -1 -13 -4 -25 -6z"/>
<path d="M6087 5657 c-3 -9 -2 -19 4 -23 15 -9 18 -2 9 20 -6 17 -7 18 -13 3z"/>
<path d="M3555 5621 c-6 -11 9 -23 19 -14 9 9 7 23 -3 23 -6 0 -12 -4 -16 -9z"/>
<path d="M587 5590 c-18 -16 -27 -32 -23 -39 4 -6 12 -9 17 -5 5 3 7 9 4 13
-7 12 32 44 45 36 5 -3 8 -11 4 -16 -3 -5 -11 -6 -17 -2 -8 4 -8 2 1 -9 10
-13 10 -17 -3 -22 -8 -3 -15 -11 -14 -18 0 -10 2 -10 6 0 2 6 9 12 15 12 6 0
7 -8 4 -17 -11 -26 33 15 50 49 11 21 11 28 1 35 -25 16 -61 9 -90 -17z m73
-20 c-19 -36 -34 -28 -20 10 1 3 2 8 1 12 0 4 6 5 14 2 11 -5 12 -11 5 -24z"/>
<path d="M4831 5557 c-33 -11 -55 -37 -32 -37 6 0 11 4 11 10 0 5 7 7 15 4 8
-4 21 -1 29 5 7 6 16 8 19 4 4 -3 7 1 7 10 0 20 -3 20 -49 4z"/>
<path d="M2254 5549 c-3 -6 -1 -16 5 -22 8 -8 11 -5 11 11 0 24 -5 28 -16 11z"/>
<path d="M4314 5546 c-4 -11 -1 -21 7 -27 17 -11 26 18 10 34 -7 7 -12 5 -17
-7z"/>
<path d="M5730 5550 c0 -5 5 -10 10 -10 6 0 10 5 10 10 0 6 -4 10 -10 10 -5 0
-10 -4 -10 -10z"/>
<path d="M4982 5488 c-17 -17 -15 -28 6 -27 11 0 12 2 4 6 -10 4 -10 8 -1 19
14 17 8 19 -9 2z"/>
<path d="M4766 5453 c-6 -14 -5 -15 5 -6 7 7 10 15 7 18 -3 3 -9 -2 -12 -12z"/>
<path d="M4690 5442 c0 -4 9 -8 20 -8 11 0 20 4 20 8 0 4 -9 8 -20 8 -11 0
-20 -4 -20 -8z"/>
<path d="M4416 5401 c-31 -6 -49 -31 -23 -31 9 0 17 -5 19 -11 5 -16 68 17 68
36 0 16 -15 17 -64 6z"/>
<path d="M3916 5391 c-3 -5 0 -14 8 -20 11 -9 15 -8 20 5 3 8 6 18 6 20 0 8
-29 4 -34 -5z"/>
<path d="M4020 5390 c0 -5 5 -10 10 -10 6 0 10 5 10 10 0 6 -4 10 -10 10 -5 0
-10 -4 -10 -10z"/>
<path d="M10 5325 c-10 -12 -10 -15 2 -15 8 0 15 7 15 15 0 8 -1 15 -2 15 -2
0 -8 -7 -15 -15z"/>
<path d="M5210 5304 c-17 -9 -20 -14 -9 -14 9 0 22 7 29 15 15 18 13 18 -20
-1z"/>
<path d="M3664 5294 c-7 -3 -9 -15 -7 -27 5 -18 3 -20 -8 -9 -33 31 -86 -10
-54 -42 19 -19 42 -11 77 27 33 36 28 66 -8 51z m-14 -55 c0 -16 -31 -22 -43
-10 -9 9 -9 14 2 20 16 10 41 4 41 -10z"/>
<path d="M3489 5234 c-17 -20 -20 -44 -7 -44 6 0 8 -6 5 -14 -5 -11 0 -13 23
-6 16 4 30 6 33 4 2 -2 9 7 15 21 9 19 8 27 -4 40 -20 20 -48 19 -65 -1z m51
-11 c0 -7 0 -16 1 -20 0 -4 -9 -11 -21 -15 -24 -9 -39 14 -21 35 14 18 41 18
41 0z"/>
<path d="M5606 5202 c-3 -5 1 -9 9 -9 8 0 12 4 9 9 -3 4 -7 8 -9 8 -2 0 -6 -4
-9 -8z"/>
<path d="M4001 5178 c-12 -4 -21 -12 -21 -18 0 -17 36 -11 61 9 l24 20 -22 -2
c-12 -1 -31 -5 -42 -9z"/>
<path d="M6414 5179 c-3 -6 -1 -16 5 -22 8 -8 11 -5 11 11 0 24 -5 28 -16 11z"/>
<path d="M4765 5170 c-3 -5 -2 -10 4 -10 5 0 13 5 16 10 3 6 2 10 -4 10 -5 0
-13 -4 -16 -10z"/>
<path d="M2626 5161 c-4 -5 -2 -12 3 -15 5 -4 12 -2 15 3 4 5 2 12 -3 15 -5 4
-12 2 -15 -3z"/>
<path d="M5165 5149 c-10 -15 3 -25 16 -12 7 7 7 13 1 17 -6 3 -14 1 -17 -5z"/>
<path d="M3110 5109 c0 -5 5 -7 10 -4 6 3 10 8 10 11 0 2 -4 4 -10 4 -5 0 -10
-5 -10 -11z"/>
<path d="M2225 5089 c-11 -17 1 -21 15 -4 8 9 8 15 2 15 -6 0 -14 -5 -17 -11z"/>
<path d="M1070 5030 c0 -5 5 -10 11 -10 5 0 7 5 4 10 -3 6 -8 10 -11 10 -2 0
-4 -4 -4 -10z"/>
<path d="M4270 5000 c0 -5 5 -10 10 -10 6 0 10 5 10 10 0 6 -4 10 -10 10 -5 0
-10 -4 -10 -10z"/>
<path d="M3624 4989 c-14 -23 13 -30 37 -10 13 11 19 20 14 21 -6 0 -17 -6
-24 -12 -11 -10 -13 -10 -7 0 9 15 -10 16 -20 1z"/>
<path d="M80 4950 c0 -5 5 -10 10 -10 6 0 10 5 10 10 0 6 -4 10 -10 10 -5 0
-10 -4 -10 -10z"/>
<path d="M2820 4940 c0 -6 7 -10 15 -10 8 0 15 2 15 4 0 2 -7 6 -15 10 -8 3
-15 1 -15 -4z"/>
<path d="M167 4905 c-8 -8 -18 -11 -21 -7 -4 3 -4 -2 0 -11 3 -10 7 -17 8 -15
1 2 10 13 20 26 21 24 16 30 -7 7z"/>
<path d="M4400 4900 c0 -5 5 -10 11 -10 5 0 7 5 4 10 -3 6 -8 10 -11 10 -2 0
-4 -4 -4 -10z"/>
<path d="M5800 4890 c0 -5 5 -10 11 -10 5 0 7 5 4 10 -3 6 -8 10 -11 10 -2 0
-4 -4 -4 -10z"/>
<path d="M3574 4865 c-10 -8 -14 -15 -8 -15 5 0 19 7 30 15 10 8 14 15 8 15
-5 0 -19 -7 -30 -15z"/>
<path d="M3333 4854 c-7 -19 11 -41 21 -25 4 6 2 11 -4 11 -7 0 -10 7 -6 15 3
8 3 15 0 15 -2 0 -7 -7 -11 -16z"/>
<path d="M2512 4820 c-3 -8 -10 -18 -16 -22 -6 -4 0 -8 14 -8 25 -1 25 -1 5
-16 -19 -16 -19 -16 5 -9 14 4 27 12 28 16 2 5 13 9 24 9 14 0 18 5 14 16 -3
9 -6 20 -6 24 0 15 -62 6 -68 -10z m58 -4 c0 -16 -27 -29 -41 -20 -15 9 -10
22 9 27 29 8 32 7 32 -7z"/>
<path d="M3305 4820 c-3 -5 -1 -10 4 -10 6 0 11 5 11 10 0 6 -2 10 -4 10 -3 0
-8 -4 -11 -10z"/>
<path d="M3830 4770 c0 -11 4 -20 9 -20 17 0 19 15 5 28 -12 11 -14 9 -14 -8z"/>
<path d="M2215 4647 c-13 -10 -15 -16 -6 -21 18 -12 61 2 61 19 0 19 -30 19
-55 2z m35 -7 c-20 -13 -33 -13 -25 0 3 6 14 10 23 10 15 0 15 -2 2 -10z"/>
<path d="M2054 4588 c3 -10 1 -20 -4 -23 -6 -4 -10 -11 -10 -18 0 -7 7 -5 16
5 13 13 14 20 4 34 -10 16 -11 16 -6 2z"/>
<path d="M1974 4505 l-27 -25 31 4 c37 4 65 24 56 38 -4 6 -10 4 -16 -6 -5 -9
-14 -16 -20 -16 -7 0 -6 5 2 15 20 24 4 18 -26 -10z"/>
<path d="M2537 4493 c-4 -3 -7 -11 -7 -17 0 -6 5 -5 12 2 6 6 9 14 7 17 -3 3
-9 2 -12 -2z"/>
<path d="M1427 4473 c-12 -11 -8 -23 8 -23 8 0 15 7 15 15 0 16 -12 20 -23 8z"/>
<path d="M1879 4443 c-17 -20 -18 -23 -3 -10 11 9 26 17 32 17 7 0 12 5 12 10
0 18 -16 11 -41 -17z"/>
<path d="M24 4452 c-12 -8 -3 -46 14 -56 6 -3 21 3 33 13 24 20 24 20 4 35
-22 17 -35 19 -51 8z m42 -25 c4 -4 -2 -7 -14 -7 -12 0 -22 4 -22 9 0 10 26 9
36 -2z"/>
<path d="M3190 4430 c-24 -20 -25 -21 -6 -35 11 -8 24 -15 30 -15 5 0 1 6 -9
14 -16 12 -17 16 -6 30 7 9 18 13 24 9 6 -3 7 -1 3 5 -9 15 -6 15 -36 -8z"/>
<path d="M1830 4425 c-8 -9 -8 -15 -2 -15 12 0 26 19 19 26 -2 2 -10 -2 -17
-11z"/>
<path d="M3265 4419 c5 -15 2 -22 -14 -26 -12 -3 -21 -9 -21 -14 0 -5 10 -5
23 0 23 9 38 61 17 61 -7 0 -9 -8 -5 -21z"/>
<path d="M130 4415 c-11 -13 -9 -15 15 -15 16 0 25 5 23 12 -7 19 -24 20 -38
3z"/>
<path d="M515 4421 c-3 -5 2 -17 11 -26 16 -15 18 -15 33 0 14 14 14 17 1 25
-19 12 -37 13 -45 1z"/>
<path d="M877 4421 c-18 -7 -18 -8 0 -30 12 -15 24 -20 36 -16 20 8 22 26 5
43 -13 13 -15 14 -41 3z m33 -27 c0 -8 -4 -12 -10 -9 -5 3 -10 13 -10 21 0 8
5 12 10 9 6 -3 10 -13 10 -21z"/>
<path d="M1655 4334 c-16 -8 -37 -22 -45 -31 -10 -10 -2 -8 21 5 41 25 64 29
35 7 -11 -8 -15 -15 -9 -15 14 0 43 28 43 41 0 13 -10 11 -45 -7z"/>
<path d="M3080 4325 c0 -8 2 -15 4 -15 2 0 6 7 10 15 3 8 1 15 -4 15 -6 0 -10
-7 -10 -15z"/>
<path d="M2626 4223 c-6 -14 -5 -15 5 -6 7 7 10 15 7 18 -3 3 -9 -2 -12 -12z"/>
<path d="M4502 4211 c-11 -7 -10 -10 3 -15 23 -9 25 -8 25 9 0 17 -9 19 -28 6z"/>
<path d="M5600 4200 c-11 -7 -11 -11 -1 -24 18 -22 31 -20 31 3 0 24 -12 32
-30 21z"/>
<path d="M2659 4183 c-13 -16 -12 -17 4 -4 16 13 21 21 13 21 -2 0 -10 -8 -17
-17z"/>
<path d="M5065 4151 c-7 -12 12 -24 25 -16 11 7 4 25 -10 25 -5 0 -11 -4 -15
-9z"/>
<path d="M1051 4051 l-33 -29 42 0 c57 -1 90 13 90 38 0 32 -57 27 -99 -9z
m79 3 c0 -2 -9 -8 -19 -14 -16 -8 -19 -7 -16 8 2 9 4 18 4 19 1 4 31 -9 31
-13z"/>
<path d="M5210 4064 c0 -8 5 -12 10 -9 6 3 10 10 10 16 0 5 -4 9 -10 9 -5 0
-10 -7 -10 -16z"/>
<path d="M2826 4013 c-6 -14 -5 -15 5 -6 7 7 10 15 7 18 -3 3 -9 -2 -12 -12z"/>
<path d="M1661 4006 c-9 -11 -9 -16 1 -22 7 -4 10 -4 6 1 -4 4 0 14 10 21 9 7
12 14 6 14 -6 0 -17 -6 -23 -14z"/>
<path d="M2780 3989 c0 -5 5 -7 10 -4 6 3 10 8 10 11 0 2 -4 4 -10 4 -5 0 -10
-5 -10 -11z"/>
<path d="M1585 3939 c-4 -6 -5 -13 -2 -16 7 -7 27 6 27 18 0 12 -17 12 -25 -2z"/>
<path d="M5634 3909 c-10 -17 13 -36 27 -22 12 12 4 33 -11 33 -5 0 -12 -5
-16 -11z"/>
<path d="M795 3879 c-22 -11 -60 -30 -85 -43 -25 -13 -51 -21 -57 -19 -7 3
-13 0 -13 -5 0 -6 -31 -26 -70 -44 -38 -18 -70 -36 -70 -40 0 -3 19 3 43 14
23 12 49 21 57 21 8 0 24 7 35 17 27 24 111 59 147 62 16 1 34 9 41 17 10 12
8 13 -13 7 -19 -6 -21 -5 -10 3 8 6 23 8 33 5 11 -3 17 0 17 10 0 20 -6 20
-55 -5z"/>
<path d="M1505 3811 c-3 -5 -18 -8 -33 -6 -15 1 -42 -3 -59 -11 -20 -8 -33 -9
-33 -3 0 6 -4 8 -10 4 -14 -9 0 -34 16 -28 9 3 14 0 12 -7 -2 -8 8 -19 22 -26
13 -7 30 -21 37 -30 17 -23 36 -9 21 16 -7 10 -15 17 -19 14 -4 -2 -10 0 -14
6 -3 5 -1 10 4 10 6 0 11 5 11 11 0 7 -11 4 -27 -6 -24 -16 -26 -16 -20 0 4 9
7 19 7 21 0 3 5 2 10 -1 6 -4 17 -1 25 5 12 10 16 9 21 -4 3 -9 10 -16 16 -16
5 0 6 5 2 12 -4 7 -3 8 4 4 6 -4 9 -13 6 -21 -4 -8 -10 -12 -15 -9 -15 9 -10
-16 6 -32 13 -14 15 -13 15 8 0 13 6 30 12 36 10 10 10 15 -1 22 -12 7 -12 11
-2 24 8 10 9 16 3 16 -6 0 -13 -4 -17 -9z"/>
<path d="M1255 3670 c-3 -5 -1 -10 4 -10 6 0 11 5 11 10 0 6 -2 10 -4 10 -3 0
-8 -4 -11 -10z"/>
<path d="M7180 3655 c-13 -16 -7 -45 10 -45 5 0 10 14 10 30 0 34 -3 36 -20
15z"/>
<path d="M1292 3644 c-7 -8 -8 -14 -3 -14 10 0 25 19 20 25 -2 1 -10 -3 -17
-11z"/>
<path d="M1245 3629 c-11 -17 1 -21 15 -4 8 9 8 15 2 15 -6 0 -14 -5 -17 -11z"/>
<path d="M6648 3545 c-7 -32 29 -53 47 -28 15 20 6 38 -24 46 -14 3 -20 -2
-23 -18z"/>
<path d="M240 3530 c0 -5 7 -10 16 -10 8 0 12 5 9 10 -3 6 -10 10 -16 10 -5 0
-9 -4 -9 -10z"/>
<path d="M50 3490 c0 -13 20 -13 40 0 12 8 9 10 -12 10 -16 0 -28 -4 -28 -10z"/>
<path d="M206 3469 c-11 -11 -14 -19 -8 -19 6 0 14 5 17 10 4 6 10 8 15 5 5
-3 11 -1 14 4 11 18 -19 18 -38 0z"/>
<path d="M6930 3470 c0 -5 4 -10 9 -10 6 0 13 5 16 10 3 6 -1 10 -9 10 -9 0
-16 -4 -16 -10z"/>
<path d="M6403 3415 c-3 -9 -3 -19 0 -22 4 -3 2 -14 -3 -24 -7 -12 -7 -20 0
-24 5 -3 10 1 10 9 0 9 5 16 12 16 9 0 9 3 0 12 -14 14 -16 42 -2 33 6 -3 10
-1 10 4 0 17 -20 13 -27 -4z"/>
<path d="M689 2474 c-1 -5 -1 -12 0 -16 0 -4 -4 -19 -9 -33 -6 -17 -6 -25 1
-25 6 0 8 -9 4 -22 -6 -16 -4 -20 8 -15 8 3 20 0 26 -6 15 -15 51 19 50 47 0
18 -2 17 -10 -6 -13 -36 -35 -42 -54 -15 -19 27 -19 36 0 57 14 15 14 18 0 30
-8 7 -16 9 -16 4z"/>
<path d="M740 2440 c20 -13 33 -13 25 0 -3 6 -14 10 -23 10 -15 0 -15 -2 -2
-10z"/>
<path d="M5742 767 c-30 -37 -24 -97 9 -97 37 0 50 90 15 103 -8 3 -19 0 -24
-6z"/>
<path d="M237 294 c-12 -12 -8 -24 6 -18 8 3 18 -5 25 -18 6 -13 11 -18 11
-12 1 17 -33 57 -42 48z"/>
<path d="M235 239 c-4 -6 -5 -12 -2 -15 2 -3 7 2 10 11 7 17 1 20 -8 4z"/>
<path d="M1619 228 c-8 -7 -20 -25 -26 -40 -10 -21 -9 -29 5 -41 27 -23 42
-29 42 -18 0 6 -5 11 -10 11 -6 0 -17 5 -24 12 -18 18 10 74 29 58 11 -9 12
-7 8 9 -6 25 -5 24 -24 9z"/>
<path d="M1671 175 c-13 -13 -21 -29 -18 -36 4 -10 6 -10 6 2 1 9 11 23 24 32
12 8 20 17 17 20 -3 2 -16 -6 -29 -18z"/>
<path d="M1171 144 c0 -11 3 -14 6 -6 3 7 2 16 -1 19 -3 4 -6 -2 -5 -13z"/>
<path d="M2095 130 c3 -5 15 -10 26 -10 10 0 19 5 19 10 0 6 -12 10 -26 10
-14 0 -23 -4 -19 -10z"/>
</g>
</svg>
